<svg xmlns="http://www.w3.org/2000/svg" width="600" height="400" viewBox="0 0 600 400">
  <rect fill="#E8DCC8" width="600" height="400"/>
  <rect fill="#C4A574" x="50" y="150" width="150" height="200" rx="5"/>
  <rect fill="#8B7355" x="70" y="170" width="110" height="80" rx="3"/>
  <rect fill="#D4C4A8" x="70" y="260" width="110" height="70" rx="3"/>
  <line x1="80" y1="270" x2="170" y2="270" stroke="#A89878" stroke-width="2"/>
  <line x1="80" y1="285" x2="170" y2="285" stroke="#A89878" stroke-width="2"/>
  <line x1="80" y1="300" x2="170" y2="300" stroke="#A89878" stroke-width="2"/>
  <line x1="80" y1="315" x2="170" y2="315" stroke="#A89878" stroke-width="2"/>
  <rect fill="#C4A574" x="220" y="100" width="180" height="250" rx="5"/>
  <rect fill="#8B7355" x="240" y="120" width="140" height="100" rx="3"/>
  <rect fill="#D4C4A8" x="240" y="230" width="140" height="100" rx="3"/>
  <ellipse fill="#6B8E6B" cx="450" cy="280" rx="60" ry="40"/>
  <rect fill="#8B8B8B" x="430" y="300" width="40" height="80"/>
  <rect fill="#D4C4A8" x="420" y="180" width="160" height="150" rx="5"/>
  <text x="300" y="380" text-anchor="middle" fill="#666" font-family="Arial" font-size="12">hero-interior.jpg</text>
</svg>


