<svg preserveAspectRatio="none" width="100%" height="100%" overflow="visible" style="display: block;" viewBox="0 0 343.073 343.072" fill="none" xmlns="http://www.w3.org/2000/svg">
<path id="Union" d="M97.2236 45.0793C97.2239 -15.3142 246.606 -14.738 246.606 45.0793C246.606 68.9491 236.04 95.9834 222.858 120.429C247.247 107.302 274.194 96.7991 297.993 96.7991C358.387 96.7993 357.811 246.183 297.993 246.183C273.976 246.183 246.755 235.485 222.191 222.191C235.486 246.754 246.183 273.976 246.183 297.992C246.183 358.386 96.7988 357.81 96.7988 297.992C96.7989 273.998 107.475 246.806 120.752 222.26C96.2218 235.522 69.054 246.182 45.0791 246.182C-14.7379 246.181 -15.3141 96.7997 45.0791 96.7991C69.2262 96.7991 96.6134 107.61 121.281 121.005C107.955 96.409 97.2236 69.1365 97.2236 45.0793Z" fill="var(--fill-0, #FACA78)"/>
</svg>
