<svg preserveAspectRatio="none" width="100%" height="100%" overflow="visible" style="display: block;" viewBox="0 0 15.3633 18.9055" fill="none" xmlns="http://www.w3.org/2000/svg">
<path id="Icon" fill-rule="evenodd" clip-rule="evenodd" d="M2.93166 4.75V5.11987H1.43053C0.98332 5.11987 0.603774 5.44786 0.538941 5.89034L0.320266 7.38279C-0.106755 10.2972 -0.106756 13.2583 0.320266 16.1727C0.511605 17.4786 1.56465 18.4882 2.87744 18.6243L3.50631 18.6896C6.28243 18.9774 9.08087 18.9774 11.857 18.6896L12.4859 18.6243C13.7987 18.4882 14.8517 17.4786 15.043 16.1727C15.4701 13.2583 15.4701 10.2972 15.043 7.3828L14.8244 5.89034C14.7595 5.44786 14.38 5.11987 13.9328 5.11987H12.4317V4.75C12.4317 2.58226 10.964 0.689516 8.8646 0.149659C8.08859 -0.0498862 7.27472 -0.0498862 6.49871 0.149659C4.39927 0.689516 2.93166 2.58225 2.93166 4.75ZM8.49104 1.6024C7.96009 1.46587 7.40322 1.46587 6.87227 1.6024C5.43581 1.97177 4.43166 3.2668 4.43166 4.75V5.11987H10.9317V4.75C10.9317 3.26681 9.9275 1.97177 8.49104 1.6024ZM4.43166 6.61987C4.43166 6.20566 4.09587 5.86987 3.68166 5.86987C3.26744 5.86987 2.93166 6.20566 2.93166 6.61987V8.61987C2.93166 9.03409 3.26744 9.36987 3.68166 9.36987C4.09587 9.36987 4.43166 9.03409 4.43166 8.61987V6.61987ZM12.4317 6.61987C12.4317 6.20566 12.0959 5.86987 11.6817 5.86987C11.2674 5.86987 10.9317 6.20566 10.9317 6.61987V8.61987C10.9317 9.03409 11.2674 9.36987 11.6817 9.36987C12.0959 9.36987 12.4317 9.03409 12.4317 8.61987V6.61987Z" fill="var(--fill-0, black)"/>
</svg>
